<svg width="330.74" height="113.43" xmlns="http://www.w3.org/2000/svg" class="nav-logo">

 <g>
  <title>Layer 1</title>
  <path fill="#ffffff" id="svg_1" d="m277.93,48.37l0,24.56l24.39,0l0,8.46c-2.06,1.74 -4.96,3.25 -8.7,4.55c-3.74,1.3 -7.51,1.95 -11.3,1.95c-8.78,0 -16.02,-3.01 -21.71,-9.03c-5.69,-6.02 -8.54,-13.47 -8.54,-22.36c0,-8.89 2.85,-16.34 8.54,-22.36c5.69,-6.02 12.93,-9.03 21.71,-9.03c4.98,0 9.51,1.33 13.58,3.98c4.07,2.66 7.18,5.94 9.35,9.84l23.42,-12.2c-4.23,-7.59 -10.19,-13.88 -17.89,-18.86c-7.7,-4.99 -17.19,-7.48 -28.46,-7.48c-16.59,0 -30.52,5.15 -41.8,15.45a52.305,52.305 0 0 0 -7.52,8.51l0,-23.91l-49.97,0l-2.46,6.35l-10.17,26.29l-10.07,-26.27l-2.45,-6.37l-49.98,0l0,23.24c-1.9,-2.65 -4.07,-5.16 -6.52,-7.52c-10.95,-10.51 -24.77,-15.77 -41.46,-15.77c-16.7,0 -30.55,5.26 -41.55,15.77c-11.01,10.53 -16.51,23.97 -16.51,40.34c0,16.37 5.5,29.82 16.51,40.33c11,10.52 24.85,15.77 41.55,15.77c16.69,0 30.52,-5.26 41.47,-15.77a55.86,55.86 0 0 0 6.52,-7.51l0,23.71l125.1,0l0,-24.38c2.14,3.05 4.64,5.88 7.52,8.5c11.27,10.3 25.21,15.45 41.8,15.45c19.19,0 35.18,-7.05 47.97,-21.14l0,-43.1l-52.37,0l0,0.01zm-196.71,30.57c-5.42,5.96 -12.52,8.94 -21.3,8.94c-8.89,0 -16.05,-2.98 -21.47,-8.94c-5.42,-5.96 -8.13,-13.44 -8.13,-22.44c0,-9 2.71,-16.48 8.13,-22.44c5.42,-5.96 12.57,-8.94 21.47,-8.94c8.78,0 15.88,2.98 21.3,8.94c5.42,5.96 8.13,13.44 8.13,22.44c0,9 -2.71,16.48 -8.13,22.44zm141.86,24.16l-23.91,0l0,-60.34l-23.5,60.34l-10.57,0l-23.36,-60.34l0,60.34l-23.91,0l0,-92.73l33.23,0l19.32,50.33l19.46,-50.33l33.23,0l0,92.73l0.01,0z"/>
 </g>
</svg>